<?xml version="1.0" standalone="no"?>
<!DOCTYPE svg PUBLIC "-//W3C//DTD SVG 20010904//EN"
 "http://www.w3.org/TR/2001/REC-SVG-20010904/DTD/svg10.dtd">
<svg version="1.0" xmlns="http://www.w3.org/2000/svg"
 width="512.000000pt" height="512.000000pt" viewBox="0 0 512.000000 512.000000"
 preserveAspectRatio="xMidYMid meet">
<metadata>
Created by potrace 1.14, written by Peter Selinger 2001-2017
</metadata>
<g transform="translate(0.000000,512.000000) scale(0.100000,-0.100000)"
fill="#000000" stroke="none">
<path d="M140 2560 l0 -2400 2420 0 2420 0 0 2400 0 2400 -2420 0 -2420 0 0
-2400z m2431 2259 c28 -28 22 -86 -21 -199 -62 -158 -170 -299 -873 -1140 -80
-96 -145 -176 -143 -177 1 -1 40 10 87 26 185 63 442 111 592 111 79 0 283
-42 337 -70 183 -93 219 -283 98 -524 -59 -119 -116 -172 -773 -718 -148 -124
-387 -330 -530 -458 -360 -322 -562 -492 -708 -593 -257 -179 -364 -209 -413
-115 -59 114 74 361 373 690 167 184 558 567 726 710 308 263 561 444 862 613
97 54 98 56 55 50 -77 -11 -368 -85 -479 -122 -114 -37 -243 -98 -466 -218
-77 -41 -180 -91 -230 -111 -178 -73 -287 -43 -316 85 -10 43 14 186 46 281
44 129 267 459 505 749 155 189 477 538 646 701 175 170 375 335 475 394 52
30 102 55 112 55 9 1 27 -9 38 -20z m797 -524 c48 -10 116 -34 179 -66 221
-108 346 -297 360 -549 7 -114 -7 -208 -48 -335 -59 -186 -237 -496 -400 -700
-182 -228 -522 -529 -853 -756 l-79 -54 34 -7 c19 -3 104 -19 189 -33 599
-105 1029 -290 1515 -655 210 -157 470 -398 602 -558 81 -97 36 -232 -77 -232
-24 0 -47 16 -112 77 -175 163 -349 252 -858 441 -519 192 -596 216 -905 287
-442 101 -515 119 -629 156 -267 87 -389 200 -389 359 0 94 26 142 131 237
112 101 352 302 512 427 200 157 423 351 510 444 151 161 299 373 406 580 67
131 89 204 89 297 0 69 -4 87 -27 127 -34 57 -85 98 -173 139 -92 44 -242 58
-433 41 -194 -17 -245 -16 -293 8 -43 23 -65 60 -50 88 5 10 34 41 64 69 88
84 247 153 392 172 113 14 260 12 343 -4z"/>
</g>
</svg>
